<?xml version="1.0" encoding="UTF-8" standalone="no"?>
<svg
   height="1024"
   viewBox="0 -960 40964.985 40960"
   width="1024.1246"
   version="1.1"
   id="svg1"
   sodipodi:docname="logo.svg"
   xml:space="preserve"
   inkscape:version="1.3 (0e150ed6c4, 2023-07-21)"
   xmlns:inkscape="http://www.inkscape.org/namespaces/inkscape"
   xmlns:sodipodi="http://sodipodi.sourceforge.net/DTD/sodipodi-0.dtd"
   xmlns:xlink="http://www.w3.org/1999/xlink"
   xmlns="http://www.w3.org/2000/svg"
   xmlns:svg="http://www.w3.org/2000/svg"><defs
     id="defs1"><linearGradient
       id="linearGradient43"
       inkscape:collect="always"><stop
         style="stop-color:#2eda5f;stop-opacity:1;"
         offset="0"
         id="stop42" /><stop
         style="stop-color:#385e9b;stop-opacity:1;"
         offset="1"
         id="stop43" /></linearGradient><inkscape:path-effect
       effect="fillet_chamfer"
       id="path-effect12"
       is_visible="true"
       lpeversion="1"
       nodesatellites_param="F,0,0,1,0,199.91534,0,1 @ F,0,0,1,0,199.96516,0,1 @ F,0,0,1,0,200.08476,0,1 @ F,0,0,1,0,199.96052,0,1"
       radius="0"
       unit="px"
       method="auto"
       mode="F"
       chamfer_steps="1"
       flexible="false"
       use_knot_distance="true"
       apply_no_radius="true"
       apply_with_radius="true"
       only_selected="false"
       hide_knots="false" /><linearGradient
       inkscape:collect="always"
       xlink:href="#linearGradient43"
       id="linearGradient14"
       x1="18.798544"
       y1="-940.3197"
       x2="1102.8685"
       y2="143.72937"
       gradientUnits="userSpaceOnUse" /><filter
       style="color-interpolation-filters:sRGB"
       inkscape:label="Drop Shadow"
       id="filter42"
       x="-0.11291667"
       y="-0.101625"
       width="1.2258333"
       height="1.20325"><feFlood
         result="flood"
         in="SourceGraphic"
         flood-opacity="0.294118"
         flood-color="rgb(0,0,0)"
         id="feFlood41" /><feGaussianBlur
         result="blur"
         in="SourceGraphic"
         stdDeviation="32.000000"
         id="feGaussianBlur41" /><feOffset
         result="offset"
         in="blur"
         dx="0.000000"
         dy="0.000000"
         id="feOffset41" /><feComposite
         result="comp1"
         operator="in"
         in="flood"
         in2="offset"
         id="feComposite41" /><feComposite
         result="comp2"
         operator="over"
         in="SourceGraphic"
         in2="comp1"
         id="feComposite42" /></filter></defs><sodipodi:namedview
     id="namedview1"
     pagecolor="#ffffff"
     bordercolor="#000000"
     borderopacity="0.25"
     inkscape:showpageshadow="2"
     inkscape:pageopacity="0.0"
     inkscape:pagecheckerboard="0"
     inkscape:deskcolor="#d1d1d1"
     inkscape:zoom="0.66888036"
     inkscape:cx="405.15467"
     inkscape:cy="622.68235"
     inkscape:window-width="1920"
     inkscape:window-height="1136"
     inkscape:window-x="0"
     inkscape:window-y="0"
     inkscape:window-maximized="1"
     inkscape:current-layer="svg1"
     showgrid="false"><inkscape:grid
       id="grid1"
       units="px"
       originx="498.06107"
       originy="497.99654"
       spacingx="40"
       spacingy="40"
       empcolor="#0099e5"
       empopacity="0.30196078"
       color="#0099e5"
       opacity="0.14901961"
       empspacing="5"
       dotted="false"
       gridanglex="30"
       gridanglez="30"
       visible="false" /></sodipodi:namedview><path
     style="opacity:1;fill:url(#linearGradient14);fill-opacity:1;stroke:#000000;stroke-width:0;stroke-linecap:butt;stroke-linejoin:round;stroke-dasharray:none"
     id="rect11"
     width="1120.1005"
     height="1119.9641"
     x="6.5132062e-06"
     y="-959.84375"
     sodipodi:type="rect"
     d="m 199.91535,-959.84375 h 720.21996 a 199.96516,199.96516 45 0 1 199.96519,199.96516 V -39.964399 A 200.08476,200.08476 135 0 1 920.01571,160.12036 H 199.96053 A 199.96052,199.96052 45 0 1 6.5132062e-6,-39.840159 V -759.92841 A 199.91534,199.91534 135 0 1 199.91535,-959.84375 Z"
     inkscape:path-effect="#path-effect12"
     transform="matrix(36.5726,0,0,36.5726,-2.1991859e-4,34143.982)" /><g
     id="g14"
     style="fill:#ffffff;fill-opacity:0.810934;stroke:#ffffff;stroke-width:9;stroke-linejoin:round;stroke-dasharray:none;stroke-opacity:1;filter:url(#filter42)"
     transform="matrix(36.5726,0,0,36.5726,-2.1991859e-4,34143.982)"><path
       d="m 495.5328,-140.89987 q -42.05084,0 -71.99614,-29.9453 -29.9453,-29.9453 -29.9453,-71.99614 0,-42.05085 29.9453,-71.99615 29.9453,-29.9453 71.99614,-29.9453 14.65409,0 27.0782,3.50424 12.42411,3.50424 23.89253,10.51271 v -268.87056 h 152.91216 v 101.94145 H 597.47425 v 254.85361 q 0,42.05084 -29.9453,71.99614 -29.9453,29.9453 -71.99615,29.9453 z"
       id="path1-5"
       style="fill:#ffffff;fill-opacity:0.346241;stroke:#ffffff;stroke-width:9;stroke-linejoin:round;stroke-dasharray:none;stroke-opacity:1" /><path
       id="path10"
       style="fill:#ffffff;fill-opacity:0.346241;stroke:#ffffff;stroke-width:9;stroke-linejoin:round;stroke-dasharray:none;stroke-opacity:1"
       d="m 319.92889,-799.75426 v 80 h -40 c -21.99998,0 -40.81772,7.84897 -56.48438,23.51562 -15.66665,15.66666 -23.51562,34.4844 -23.51562,56.48438 v 559.999997 c 0,21.99998 7.84897,40.81772 23.51562,56.48438 15.66666,15.666646 34.4844,23.51562 56.48438,23.51562 h 560 c 21.99998,0 40.81772,-7.848974 56.48438,-23.51562 15.66665,-15.66666 23.51562,-34.4844 23.51562,-56.48438 V -639.75426 c 0,-21.99998 -7.84897,-40.81772 -23.51562,-56.48438 -15.66666,-15.66665 -34.4844,-23.51562 -56.48438,-23.51562 h -40 v -80 h -80 v 80 h -320 v -80 z m -40,160 h 560 v 80 h -78.90625 v 80 h 78.90625 v 399.999997 h -560 V -479.75426 h 199.60938 v -80 H 279.92889 Z"
       sodipodi:nodetypes="ccsssssssssssscccccccccccccccccccc" /></g></svg>
